<svg width="24" height="24" viewBox="0 0 24 24" fill="none" xmlns="http://www.w3.org/2000/svg">
<path d="M12.4721 10.9108C11.7812 8.95431 9.74463 7.63784 7.46808 8.08879C5.80249 8.42336 4.44966 9.75438 4.10054 11.42C3.50413 14.2347 5.64248 16.7295 8.3627 16.7295C10.261 16.7295 11.8757 15.5148 12.4721 13.8202H15.636V15.2748C15.636 16.0749 16.2906 16.7295 17.0907 16.7295C17.8907 16.7295 18.5453 16.0749 18.5453 15.2748V13.8202C19.3454 13.8202 20 13.1656 20 12.3655C20 11.5654 19.3454 10.9108 18.5453 10.9108H12.4721ZM8.3627 13.8202C7.56264 13.8202 6.90804 13.1656 6.90804 12.3655C6.90804 11.5654 7.56264 10.9108 8.3627 10.9108C9.16277 10.9108 9.81736 11.5654 9.81736 12.3655C9.81736 13.1656 9.16277 13.8202 8.3627 13.8202Z" fill="white"/>
</svg>
