<svg width="16" height="16" viewBox="0 0 16 16" fill="none" xmlns="http://www.w3.org/2000/svg">
<path d="M12.7594 8.6241C12.7834 8.4241 12.7994 8.2161 12.7994 8.0001C12.7994 7.7841 12.7834 7.5761 12.7514 7.3761L14.1034 6.3201C14.2234 6.2241 14.2554 6.0481 14.1834 5.9121L12.9034 3.6961C12.8234 3.5521 12.6554 3.5041 12.5114 3.5521L10.9194 4.1921C10.5834 3.9361 10.2314 3.7281 9.83942 3.5681L9.59942 1.8721C9.57542 1.7121 9.43942 1.6001 9.27942 1.6001H6.71942C6.55942 1.6001 6.43142 1.7121 6.40742 1.8721L6.16742 3.5681C5.77542 3.7281 5.41542 3.9441 5.08742 4.1921L3.49542 3.5521C3.35142 3.4961 3.18342 3.5521 3.10342 3.6961L1.82342 5.9121C1.74342 6.0561 1.77542 6.2241 1.90342 6.3201L3.25542 7.3761C3.22342 7.5761 3.19942 7.7921 3.19942 8.0001C3.19942 8.2081 3.21542 8.4241 3.24742 8.6241L1.89542 9.6801C1.77542 9.7761 1.74342 9.9521 1.81542 10.0881L3.09542 12.3041C3.17542 12.4481 3.34342 12.4961 3.48742 12.4481L5.07942 11.8081C5.41542 12.0641 5.76742 12.2721 6.15942 12.4321L6.39942 14.1281C6.43142 14.2881 6.55942 14.4001 6.71942 14.4001H9.27942C9.43942 14.4001 9.57542 14.2881 9.59142 14.1281L9.83142 12.4321C10.2234 12.2721 10.5834 12.0561 10.9114 11.8081L12.5034 12.4481C12.6474 12.5041 12.8154 12.4481 12.8954 12.3041L14.1754 10.0881C14.2554 9.9441 14.2234 9.7761 14.0954 9.6801L12.7594 8.6241ZM7.99942 10.4001C6.67942 10.4001 5.59942 9.3201 5.59942 8.0001C5.59942 6.6801 6.67942 5.6001 7.99942 5.6001C9.31942 5.6001 10.3994 6.6801 10.3994 8.0001C10.3994 9.3201 9.31942 10.4001 7.99942 10.4001Z" fill="#222222"/>
</svg>
