<svg width="20" height="20" viewBox="0 0 20 20" fill="none" xmlns="http://www.w3.org/2000/svg">
<path d="M4.16797 4.16634C4.16797 4.62467 4.54297 4.99967 5.0013 4.99967H15.0013C15.4596 4.99967 15.8346 4.62467 15.8346 4.16634C15.8346 3.70801 15.4596 3.33301 15.0013 3.33301H5.0013C4.54297 3.33301 4.16797 3.70801 4.16797 4.16634ZM6.1763 11.6663H7.5013V15.833C7.5013 16.2913 7.8763 16.6663 8.33464 16.6663H11.668C12.1263 16.6663 12.5013 16.2913 12.5013 15.833V11.6663H13.8263C14.568 11.6663 14.943 10.7663 14.418 10.2413L10.593 6.41634C10.268 6.09134 9.74297 6.09134 9.41797 6.41634L5.59297 10.2413C5.06797 10.7663 5.43464 11.6663 6.1763 11.6663Z" fill="#F5C242"/>
</svg>
