<svg width="24" height="25" viewBox="0 0 24 25" fill="none" xmlns="http://www.w3.org/2000/svg">
<path d="M6 10.916C4.9 10.916 4 11.816 4 12.916C4 14.016 4.9 14.916 6 14.916C7.1 14.916 8 14.016 8 12.916C8 11.816 7.1 10.916 6 10.916ZM18 10.916C16.9 10.916 16 11.816 16 12.916C16 14.016 16.9 14.916 18 14.916C19.1 14.916 20 14.016 20 12.916C20 11.816 19.1 10.916 18 10.916ZM12 10.916C10.9 10.916 10 11.816 10 12.916C10 14.016 10.9 14.916 12 14.916C13.1 14.916 14 14.016 14 12.916C14 11.816 13.1 10.916 12 10.916Z" fill="black"/>
</svg>
