<svg width="64" height="64" viewBox="0 0 20 20" fill="none"
  xmlns="http://www.w3.org/2000/svg">
  <path d="M16.192 10.8167C16.2254 10.55 16.2504 10.2833 16.2504 10C16.2504 9.71667 16.2254 9.45001 16.192 9.18334L17.9504 7.80834C18.1087 7.68334 18.1504 7.45834 18.0504 7.275L16.3837 4.39167C16.2837 4.20834 16.0587 4.14167 15.8754 4.20834L13.8004 5.04167C13.367 4.70834 12.9004 4.43334 12.392 4.22501L12.0754 2.01667C12.0504 1.81667 11.8754 1.66667 11.667 1.66667H8.33369C8.12535 1.66667 7.95035 1.81667 7.92535 2.01667L7.60869 4.22501C7.10035 4.43334 6.63369 4.71667 6.20035 5.04167L4.12535 4.20834C3.93369 4.13334 3.71702 4.20834 3.61702 4.39167L1.95035 7.275C1.84202 7.45834 1.89202 7.68334 2.05035 7.80834L3.80869 9.18334C3.77535 9.45001 3.75035 9.72501 3.75035 10C3.75035 10.275 3.77535 10.55 3.80869 10.8167L2.05035 12.1917C1.89202 12.3167 1.85035 12.5417 1.95035 12.725L3.61702 15.6083C3.71702 15.7917 3.94202 15.8583 4.12535 15.7917L6.20035 14.9583C6.63369 15.2917 7.10035 15.5667 7.60869 15.775L7.92535 17.9833C7.95035 18.1833 8.12535 18.3333 8.33369 18.3333H11.667C11.8754 18.3333 12.0504 18.1833 12.0754 17.9833L12.392 15.775C12.9004 15.5667 13.367 15.2833 13.8004 14.9583L15.8754 15.7917C16.067 15.8667 16.2837 15.7917 16.3837 15.6083L18.0504 12.725C18.1504 12.5417 18.1087 12.3167 17.9504 12.1917L16.192 10.8167ZM10.0004 12.9167C8.39202 12.9167 7.08369 11.6083 7.08369 10C7.08369 8.39167 8.39202 7.08334 10.0004 7.08334C11.6087 7.08334 12.917 8.39167 12.917 10C12.917 11.6083 11.6087 12.9167 10.0004 12.9167Z" fill="black"/>
</svg>
