<svg width="123" height="93" viewBox="0 0 123 93" fill="none" xmlns="http://www.w3.org/2000/svg">
  <path fill-rule="evenodd" clip-rule="evenodd"
    d="M81.998 28.1527C81.8692 20.4236 75.6395 14.1982 67.9735 14.1982L67.9742 14.199L67.8945 28.9622L82.0008 42.9191V28.1555L81.998 28.1527Z"
    fill="white" />
  <path fill-rule="evenodd" clip-rule="evenodd"
    d="M66.3162 7.34951C59.3121 8.14302 53.8671 14.1576 53.8671 21.4596V21.4597V28.2363L53.8672 28.2364L54.1063 43L40 29.0432V14.1989V14.1182L40.0002 14.1184C40.043 6.31363 46.3064 0 54.0266 0C59.3197 0 63.9281 2.96793 66.3162 7.34951Z"
    fill="white" />
  <path
    d="M7.63138 72.4V67.056H12.3354C12.7834 67.056 13.21 67.0987 13.6154 67.184C14.042 67.248 14.4154 67.376 14.7354 67.568C15.0554 67.76 15.3114 68.0267 15.5034 68.368C15.6954 68.7093 15.7914 69.1467 15.7914 69.68C15.7914 70.64 15.5034 71.3333 14.9274 71.76C14.3514 72.1867 13.6154 72.4 12.7194 72.4H7.63138ZM2.60738 63.152V86H13.6794C14.7034 86 15.6954 85.872 16.6554 85.616C17.6367 85.36 18.5007 84.9653 19.2474 84.432C20.0154 83.8987 20.6234 83.216 21.0714 82.384C21.5194 81.5307 21.7434 80.528 21.7434 79.376C21.7434 77.9467 21.3914 76.7307 20.6874 75.728C20.0047 74.704 18.9594 73.9893 17.5514 73.584C18.5754 73.0933 19.3434 72.464 19.8554 71.696C20.3887 70.928 20.6554 69.968 20.6554 68.816C20.6554 67.7493 20.474 66.8533 20.1114 66.128C19.77 65.4027 19.2794 64.8267 18.6394 64.4C17.9994 63.952 17.2314 63.632 16.3354 63.44C15.4394 63.248 14.4474 63.152 13.3594 63.152H2.60738ZM7.63138 82.096V75.824H13.1034C14.1914 75.824 15.066 76.08 15.7274 76.592C16.3887 77.0827 16.7194 77.9147 16.7194 79.088C16.7194 79.6853 16.6127 80.176 16.3994 80.56C16.2074 80.944 15.9407 81.2533 15.5994 81.488C15.258 81.7013 14.8634 81.8613 14.4154 81.968C13.9674 82.0533 13.498 82.096 13.0074 82.096H7.63138ZM24.9786 69.456V86H29.5226V78.544C29.5226 77.7973 29.5973 77.104 29.7466 76.464C29.896 75.824 30.1413 75.2693 30.4826 74.8C30.8453 74.3093 31.3146 73.9253 31.8906 73.648C32.4666 73.3707 33.1706 73.232 34.0026 73.232C34.28 73.232 34.568 73.2533 34.8666 73.296C35.1653 73.3173 35.4213 73.3493 35.6346 73.392V69.168C35.272 69.0613 34.9413 69.008 34.6426 69.008C34.0666 69.008 33.512 69.0933 32.9786 69.264C32.4453 69.4347 31.944 69.68 31.4746 70C31.0053 70.2987 30.5893 70.672 30.2266 71.12C29.864 71.5467 29.576 72.016 29.3626 72.528H29.2986V69.456H24.9786ZM42.4081 66.896V63.152H37.8641V66.896H42.4081ZM37.8641 69.456V86H42.4081V69.456H37.8641ZM58.0501 77.68C58.0501 78.3627 57.9861 79.024 57.8581 79.664C57.7301 80.304 57.5168 80.88 57.2181 81.392C56.9195 81.8827 56.5141 82.2773 56.0021 82.576C55.5115 82.8747 54.8928 83.024 54.1461 83.024C53.4421 83.024 52.8341 82.8747 52.3221 82.576C51.8315 82.256 51.4155 81.8507 51.0741 81.36C50.7541 80.848 50.5195 80.272 50.3701 79.632C50.2208 78.992 50.1461 78.352 50.1461 77.712C50.1461 77.0293 50.2101 76.3787 50.3381 75.76C50.4875 75.12 50.7115 74.5547 51.0101 74.064C51.3301 73.5733 51.7461 73.1787 52.2581 72.88C52.7701 72.5813 53.3995 72.432 54.1461 72.432C54.8928 72.432 55.5115 72.5813 56.0021 72.88C56.4928 73.1787 56.8875 73.5733 57.1861 74.064C57.5061 74.5333 57.7301 75.088 57.8581 75.728C57.9861 76.3467 58.0501 76.9973 58.0501 77.68ZM58.1141 83.888V86H62.4341V63.152H57.8901V71.472H57.8261C57.3141 70.6613 56.6101 70.0533 55.7141 69.648C54.8395 69.2213 53.9115 69.008 52.9301 69.008C51.7141 69.008 50.6475 69.2533 49.7301 69.744C48.8128 70.2133 48.0448 70.8427 47.4261 71.632C46.8288 72.4213 46.3701 73.3387 46.0501 74.384C45.7515 75.408 45.6021 76.4747 45.6021 77.584C45.6021 78.736 45.7515 79.8453 46.0501 80.912C46.3701 81.9787 46.8288 82.928 47.4261 83.76C48.0448 84.5707 48.8235 85.2213 49.7621 85.712C50.7008 86.1813 51.7888 86.416 53.0261 86.416C54.1141 86.416 55.0848 86.224 55.9381 85.84C56.8128 85.4347 57.5168 84.784 58.0501 83.888H58.1141ZM73.9006 82.096C73.1966 82.096 72.61 81.9467 72.1406 81.648C71.6713 81.3493 71.2873 80.9653 70.9886 80.496C70.7113 80.0267 70.5086 79.504 70.3806 78.928C70.274 78.3307 70.2206 77.7333 70.2206 77.136C70.2206 76.5173 70.2846 75.9307 70.4126 75.376C70.562 74.8 70.786 74.2987 71.0846 73.872C71.4046 73.424 71.7886 73.072 72.2366 72.816C72.706 72.56 73.2606 72.432 73.9006 72.432C74.6473 72.432 75.266 72.5707 75.7566 72.848C76.2473 73.1253 76.642 73.4987 76.9406 73.968C77.2393 74.4373 77.4526 74.9813 77.5806 75.6C77.7086 76.1973 77.7726 76.8373 77.7726 77.52C77.7726 78.1173 77.6873 78.6933 77.5166 79.248C77.3673 79.7813 77.1326 80.2613 76.8126 80.688C76.4926 81.1147 76.0873 81.456 75.5966 81.712C75.106 81.968 74.5406 82.096 73.9006 82.096ZM82.0926 84.944V69.456H77.7726V71.664H77.7086C77.154 70.704 76.4606 70.0213 75.6286 69.616C74.818 69.2107 73.8686 69.008 72.7806 69.008C71.6286 69.008 70.6046 69.232 69.7086 69.68C68.834 70.128 68.098 70.736 67.5006 71.504C66.9033 72.2507 66.4446 73.1253 66.1246 74.128C65.826 75.1093 65.6766 76.1333 65.6766 77.2C65.6766 78.3307 65.8046 79.408 66.0606 80.432C66.338 81.4347 66.7646 82.32 67.3406 83.088C67.9166 83.8347 68.6526 84.432 69.5486 84.88C70.4446 85.3067 71.5113 85.52 72.7486 85.52C73.7513 85.52 74.7006 85.3173 75.5966 84.912C76.514 84.4853 77.218 83.8347 77.7086 82.96H77.7726V85.136C77.794 86.3093 77.506 87.28 76.9086 88.048C76.3326 88.816 75.4046 89.2 74.1246 89.2C73.314 89.2 72.5993 89.0293 71.9806 88.688C71.362 88.368 70.946 87.7813 70.7326 86.928H66.2206C66.2846 87.8667 66.5406 88.6667 66.9886 89.328C67.458 90.0107 68.034 90.5653 68.7166 90.992C69.4206 91.4187 70.1886 91.728 71.0206 91.92C71.874 92.1333 72.706 92.24 73.5166 92.24C75.4153 92.24 76.93 91.984 78.0606 91.472C79.1913 90.96 80.0553 90.3307 80.6526 89.584C81.25 88.8587 81.634 88.0693 81.8046 87.216C81.9966 86.3627 82.0926 85.6053 82.0926 84.944ZM97.2071 75.952H89.8151C89.8365 75.632 89.9005 75.2693 90.0071 74.864C90.1351 74.4587 90.3378 74.0747 90.6151 73.712C90.9138 73.3493 91.2978 73.0507 91.7671 72.816C92.2578 72.56 92.8658 72.432 93.5911 72.432C94.7005 72.432 95.5218 72.7307 96.0551 73.328C96.6098 73.9253 96.9938 74.8 97.2071 75.952ZM89.8151 78.832H101.751C101.836 77.552 101.73 76.3253 101.431 75.152C101.132 73.9787 100.642 72.9333 99.9591 72.016C99.2978 71.0987 98.4445 70.3733 97.3991 69.84C96.3538 69.2853 95.1271 69.008 93.7191 69.008C92.4605 69.008 91.3085 69.232 90.2631 69.68C89.2391 70.128 88.3538 70.7467 87.6071 71.536C86.8605 72.304 86.2845 73.2213 85.8791 74.288C85.4738 75.3547 85.2711 76.5067 85.2711 77.744C85.2711 79.024 85.4631 80.1973 85.8471 81.264C86.2525 82.3307 86.8178 83.248 87.5431 84.016C88.2685 84.784 89.1538 85.3813 90.1991 85.808C91.2445 86.2133 92.4178 86.416 93.7191 86.416C95.5965 86.416 97.1965 85.9893 98.5191 85.136C99.8418 84.2827 100.823 82.864 101.463 80.88H97.4631C97.3138 81.392 96.9085 81.8827 96.2471 82.352C95.5858 82.8 94.7965 83.024 93.8791 83.024C92.5991 83.024 91.6178 82.6933 90.9351 82.032C90.2525 81.3707 89.8791 80.304 89.8151 78.832ZM116.51 77.68C116.51 78.3627 116.446 79.024 116.318 79.664C116.19 80.304 115.977 80.88 115.678 81.392C115.379 81.8827 114.974 82.2773 114.462 82.576C113.971 82.8747 113.353 83.024 112.606 83.024C111.902 83.024 111.294 82.8747 110.782 82.576C110.291 82.256 109.875 81.8507 109.534 81.36C109.214 80.848 108.979 80.272 108.83 79.632C108.681 78.992 108.606 78.352 108.606 77.712C108.606 77.0293 108.67 76.3787 108.798 75.76C108.947 75.12 109.171 74.5547 109.47 74.064C109.79 73.5733 110.206 73.1787 110.718 72.88C111.23 72.5813 111.859 72.432 112.606 72.432C113.353 72.432 113.971 72.5813 114.462 72.88C114.953 73.1787 115.347 73.5733 115.646 74.064C115.966 74.5333 116.19 75.088 116.318 75.728C116.446 76.3467 116.51 76.9973 116.51 77.68ZM116.574 83.888V86H120.894V63.152H116.35V71.472H116.286C115.774 70.6613 115.07 70.0533 114.174 69.648C113.299 69.2213 112.371 69.008 111.39 69.008C110.174 69.008 109.107 69.2533 108.19 69.744C107.273 70.2133 106.505 70.8427 105.886 71.632C105.289 72.4213 104.83 73.3387 104.51 74.384C104.211 75.408 104.062 76.4747 104.062 77.584C104.062 78.736 104.211 79.8453 104.51 80.912C104.83 81.9787 105.289 82.928 105.886 83.76C106.505 84.5707 107.283 85.2213 108.222 85.712C109.161 86.1813 110.249 86.416 111.486 86.416C112.574 86.416 113.545 86.224 114.398 85.84C115.273 85.4347 115.977 84.784 116.51 83.888H116.574Z"
    fill="white" />
</svg>